<svg height="512" viewBox="0 0 510 510" width="512" xmlns="http://www.w3.org/2000/svg" xmlns:xlink="http://www.w3.org/1999/xlink"><linearGradient id="a"><stop offset="0" stop-color="#537983"/><stop offset=".6" stop-color="#554e56"/><stop offset="1" stop-color="#433f43"/></linearGradient><linearGradient id="d" gradientUnits="userSpaceOnUse" x1="151.7" x2="507.8" xlink:href="#a" y1="416.7" y2="416.7"/><linearGradient id="e" gradientUnits="userSpaceOnUse" x1="303.5" x2="349.1" xlink:href="#a" y1="436.7" y2="436.7"/><linearGradient id="f" gradientUnits="userSpaceOnUse" x1="307.2" x2="370.8" xlink:href="#a" y1="465.9" y2="465.9"/><linearGradient id="g" gradientTransform="rotate(45 429.6 221)" gradientUnits="userSpaceOnUse" x1="137.5" x2="498.2" xlink:href="#a" y1="486.4" y2="486.4"/><linearGradient id="h" gradientTransform="rotate(45 342.3 233)" gradientUnits="userSpaceOnUse" x1="175.8" x2="298.3" xlink:href="#a" y1="337.8" y2="337.8"/><linearGradient id="i" gradientTransform="rotate(45 342.3 233)" gradientUnits="userSpaceOnUse" x1="139.1" x2="365.8" xlink:href="#a" y1="451.8" y2="451.8"/><linearGradient id="b"><stop offset="0" stop-color="#fef056"/><stop offset=".5" stop-color="#fbc56d"/><stop offset="1" stop-color="#c86d36"/></linearGradient><linearGradient id="j" gradientTransform="rotate(45 429.6 221)" gradientUnits="userSpaceOnUse" x1="361.6" x2="408.3" xlink:href="#b" y1="609.1" y2="609.1"/><linearGradient id="k" gradientTransform="rotate(45 429.6 221)" gradientUnits="userSpaceOnUse" x1="389.6" x2="436.3" xlink:href="#b" y1="567.6" y2="567.6"/><linearGradient id="l" gradientTransform="rotate(45 -1698.6 162.5)" gradientUnits="userSpaceOnUse" x1="-315.2" x2="-191.8" xlink:href="#b" y1="-1240.2" y2="-1240.2"/><linearGradient id="m" gradientTransform="rotate(45 -1698.6 207.7)" gradientUnits="userSpaceOnUse" x1="-377.2" x2="-227.8" xlink:href="#b" y1="-1226.9" y2="-1226.9"/><linearGradient id="n" gradientTransform="rotate(45 -1699.5 208.7)" gradientUnits="userSpaceOnUse" x1="-343.3" x2="-252.8" xlink:href="#a" y1="-1365.1" y2="-1365.1"/><linearGradient id="o" gradientTransform="rotate(45 -1699.5 208.7)" gradientUnits="userSpaceOnUse" x1="-331.3" x2="-252.8" xlink:href="#a" y1="-1395.9" y2="-1395.9"/><linearGradient id="p" gradientTransform="rotate(45 -1782.3 -86.2)" gradientUnits="userSpaceOnUse" x1="-124.2" x2="-69.8" xlink:href="#a" y1="-1602.7" y2="-1602.7"/><linearGradient id="q" gradientTransform="rotate(45 -1699.5 208.7)" gradientUnits="userSpaceOnUse" x1="-319.2" x2="-252.8" xlink:href="#a" y1="-1426.7" y2="-1426.7"/><linearGradient id="c"><stop offset="0" stop-color="#f8f6f7"/><stop offset=".2" stop-color="#f8f6f7"/><stop offset="1" stop-color="#e7e6f5"/></linearGradient><linearGradient id="r" gradientTransform="matrix(.397 .918 -.766 .331 -549.7 781.2)" gradientUnits="userSpaceOnUse" x1="-320.2" x2="-292.6" xlink:href="#c" y1="-1478.9" y2="-1478.9"/><linearGradient id="s" gradientTransform="matrix(.397 .918 -.766 .331 -549.7 781.2)" gradientUnits="userSpaceOnUse" x1="-320.2" x2="-292.6" xlink:href="#c" y1="-1439.8" y2="-1439.8"/><linearGradient id="t" gradientTransform="matrix(.397 .918 -.766 .331 -549.7 781.2)" gradientUnits="userSpaceOnUse" x1="-320.2" x2="-292.6" xlink:href="#c" y1="-1400.6" y2="-1400.6"/><linearGradient id="u" gradientTransform="matrix(.397 .918 -.766 .331 -549.7 781.2)" gradientUnits="userSpaceOnUse" x1="-320.2" x2="-292.6" xlink:href="#c" y1="-1361.6" y2="-1361.6"/><linearGradient id="v" gradientUnits="userSpaceOnUse" x1="445.7" x2="470.5" xlink:href="#b" y1="311.3" y2="311.3"/><linearGradient id="w" gradientUnits="userSpaceOnUse" x1="432.6" x2="488.2" xlink:href="#b" y1="341.6" y2="341.6"/><linearGradient id="x" gradientUnits="userSpaceOnUse" x1="402.2" x2="498" xlink:href="#b" y1="341.6" y2="341.6"/><linearGradient id="y" gradientTransform="rotate(45 429.6 221)" gradientUnits="userSpaceOnUse" x1="239" x2="384.4" xlink:href="#c" y1="567.7" y2="567.7"/><linearGradient id="z" gradientTransform="rotate(45 342.3 233)" gradientUnits="userSpaceOnUse" x1="248.3" x2="326.2" y1="509.4" y2="509.4"><stop offset="0" stop-color="#f8f6f7"/><stop offset="1" stop-color="#d1ceeb"/></linearGradient><linearGradient id="A" gradientTransform="rotate(45 -1802 -147.2)" gradientUnits="userSpaceOnUse" x1="-121.8" x2="-15.8" xlink:href="#c" y1="-1236.1" y2="-1236.1"/><linearGradient id="B" gradientTransform="rotate(45 -1802 -147.2)" gradientUnits="userSpaceOnUse" x1="-103.1" x2="2.8" xlink:href="#c" y1="-1195.8" y2="-1195.8"/><linearGradient id="C" gradientTransform="rotate(45 429.6 221)" gradientUnits="userSpaceOnUse" x1="260.3" x2="396.8" xlink:href="#b" y1="99.7" y2="99.7"/><linearGradient id="D" gradientTransform="rotate(45 342.3 233)" gradientUnits="userSpaceOnUse" x1="201.1" x2="361.1" xlink:href="#b" y1="41.5" y2="41.5"/><linearGradient id="E" gradientTransform="rotate(45 342.3 233)" gradientUnits="userSpaceOnUse" x1="340.3" x2="347.4" y1="430.6" y2="430.6"><stop offset="0" stop-color="#f3eae6"/><stop offset="1" stop-color="#cdbfba"/></linearGradient><path d="M172.7 491.8v-15l105-.2c24.6 0 47.9-8.8 66.3-24.8l-11-11a30.6 30.6 0 010-43.4c5.9-5.8 13.6-9 21.8-9a30.8 30.8 0 0121.7 52.5l-11 11.1 11.6 11.7c8 8 18.9 12.5 30 12.5h.2a42.6 42.6 0 0042.4-42.5v-92h15v92a57.6 57.6 0 01-57.3 57.5h-.2c-15.2 0-30-6.2-40.7-16.9l-11.8-11.8a116.2 116.2 0 01-77 29.1zm182.1-88.4a15.7 15.7 0 00-15.7 15.7c0 4.2 1.6 8.2 4.6 11.2l11.1 11.1 11.2-11.1a15.8 15.8 0 00-11.2-27z" fill="url(#d)"/><path d="M343.7 430.3a15.6 15.6 0 01-4.4-8.7l-11.9 11.5c1.5 2.9 3.4 5.5 5.7 7.8l11 11 10.7-10.5z" fill="url(#e)"/><path d="M377.1 463.7L365.4 452l-10.7 10.5 11.8 11.8c2 2 4 3.8 6.3 5.4l11-10.6a42.2 42.2 0 01-6.7-5.4z" fill="url(#f)"/><path d="M319 313a21 21 0 00-25-3.6l-3.3 1.8a23.5 23.5 0 01-34.8-22l.5-7.7c.9-17-10.7-32-27.3-35.4a29 29 0 01-14.7-49l11-11a23.7 23.7 0 10-33.4-33.5c-11.1 11-20 24-26.4 38.4l-17.3 39a127.2 127.2 0 01-75 68.8l-29 10a58.6 58.6 0 00-22.5 14 74.6 74.6 0 000 105.4l60 60a74.6 74.6 0 00105.5 0c6.3-6.4 11-14 14-22.5l10-29a127.2 127.2 0 0168.7-75l32.6-14.5a21 21 0 006.3-34.1z" fill="url(#g)"/><path d="M256.2 285.2c-6.4 1.4-13 .1-18.4-3.6l-6.6 6.6a8.4 8.4 0 01-11.9 0L186.1 255a8.5 8.5 0 010-12l20.3-20.3a28.9 28.9 0 0022.7 23.4 34.3 34.3 0 0127.3 35.4z" fill="url(#h)"/><path d="M187.3 488.2a74.6 74.6 0 01-105.5 0l-28.3-28.3a74.6 74.6 0 00105.5 0 58.5 58.5 0 0014-22.5l10-29a127.2 127.2 0 0168.7-75l32.6-14.5c4.7-2 8.2-5.6 10.3-9.8a21.1 21.1 0 1118 38.1L280 361.7a127.2 127.2 0 00-68.8 75l-10 29a58.8 58.8 0 01-14 22.5z" fill="url(#i)"/><circle cx="120.6" cy="460.8" fill="url(#j)" r="17.5"/><circle cx="170.8" cy="452.3" fill="url(#k)" r="17.5"/><path d="M237 305.8l-33.2-33.1a8.5 8.5 0 010-12L383.3 81.2a8.5 8.5 0 0112 0l33.1 33.2a8.5 8.5 0 010 12L249 305.7a8.5 8.5 0 01-12 0z" fill="url(#l)"/><path d="M428.4 126.3L249 305.8a8.5 8.5 0 01-12 0l-18.2-18.2a8.5 8.5 0 0012 0l157.2-157.3-20.6-20.7a22 22 0 01-5-7.5l21-20.9a8.5 8.5 0 0112 0l33.1 33.2a8.5 8.5 0 010 12z" fill="url(#m)"/><path d="M430.8 124l-64-64 10.6-10.6 64 64z" fill="url(#n)"/><path d="M452.6 102.2L397 46.7l10.6-10.6 55.5 55.5z" fill="url(#o)"/><path d="M495.5 57.5L457 19.1l10.6-10.7L506.1 47z" fill="url(#p)"/><path d="M474.3 80.4l-47-47L438 22.8l47 47z" fill="url(#q)"/><path d="M475.2 8.2c-2.8-6.4-9.4-9.8-14.8-7.5l-6.2 2.7c-5.4 2.3-7.5 9.5-4.7 15.9s9.4 9.8 14.7 7.5l6.3-2.7c5.3-2.3 7.4-9.5 4.7-15.9z" fill="url(#r)"/><path d="M445.2 21.1c-2.8-6.4-9.4-9.7-14.8-7.4l-6.2 2.7c-5.4 2.3-7.5 9.4-4.7 15.8 2.8 6.5 9.4 9.8 14.8 7.5l6.2-2.7c5.4-2.3 7.5-9.4 4.7-15.8z" fill="url(#s)"/><path d="M415.2 34.1c-2.8-6.4-9.4-9.8-14.7-7.5l-6.3 2.7c-5.4 2.3-7.5 9.5-4.7 15.9s9.4 9.8 14.8 7.5l6.2-2.7c5.4-2.4 7.5-9.5 4.7-15.9z" fill="url(#t)"/><path d="M385.4 47c-2.8-6.4-9.4-9.8-14.8-7.5l-6.2 2.7c-5.4 2.3-7.5 9.4-4.7 15.9 2.8 6.4 9.4 9.8 14.7 7.5l6.3-2.7c5.3-2.4 7.4-9.5 4.7-15.9z" fill="url(#u)"/><path d="M457.2 334.1a7.5 7.5 0 01-7.5-7.5v-30.5a7.5 7.5 0 0115 0v30.5c0 4.1-3.4 7.5-7.5 7.5z" fill="url(#v)"/><path d="M457.2 374.6a22 22 0 01-21.7-25l3.9-28.2c1-7.3 7.3-12.8 14.7-12.8h6.2c7.4 0 13.6 5.5 14.7 12.8l3.9 28.3a22 22 0 01-21.7 25z" fill="url(#w)"/><path d="M478.9 349.7l-4-28.3c-1-7.3-7.2-12.8-14.6-12.8H454c-1.8 0-3.5.3-5 1 5 1.7 8.8 6.2 9.6 11.8l3.9 28.3A22 22 0 01449 373a21.9 21.9 0 0029.9-23.4z" fill="url(#x)"/><path d="M110.4 428.3l-29.1-29c-4.1-4.2-4.1-10.8 0-14.9l21.4-21.4c4-4 10.7-4 14.8 0l29.1 29.1c4.1 4.1 4.1 10.8 0 14.9l-21.4 21.3c-4 4.1-10.7 4.1-14.8 0z" fill="url(#y)"/><path d="M146.6 392.1l-17.7-17.7c4.1 4.1 4.1 10.8 0 14.9l-21.4 21.4c-4 4-10.7 4-14.8 0l17.7 17.6c4 4.1 10.7 4.1 14.8 0l21.4-21.3c4.1-4.1 4.1-10.8 0-14.9z" fill="url(#z)"/><g><path d="M202.5 335.7L160.7 294c-4.5-4.6-4.5-12 0-16.5l1.8-1.8c4.6-4.6 12-4.6 16.5 0l41.8 41.8c4.6 4.6 4.6 12 0 16.5l-1.7 1.8c-4.6 4.6-12 4.6-16.6 0z" fill="url(#A)"/><path d="M187.2 377.4l-41.8-41.8c-4.6-4.6-4.6-12 0-16.5l1.8-1.8c4.5-4.6 12-4.6 16.5 0l41.8 41.8c4.6 4.6 4.6 12 0 16.5l-1.8 1.8c-4.5 4.6-12 4.6-16.5 0z" fill="url(#B)"/></g><path d="M413 117.4l-32.1-32.1c-5-5-3.5-13.7 3.1-16.5l84.9-37.3c11.4-5 24.7-2.5 33.5 6.3a26 26 0 010 36.7l-42.8 42.9a33 33 0 01-46.6 0z" fill="url(#C)"/><path d="M502.4 37.8a30.2 30.2 0 00-11.3-7c2.8 8.8.7 19-6.4 26L442 99.8a33 33 0 01-46.6 0l17.7 17.7a33 33 0 0046.6 0l42.8-42.9a26 26 0 000-36.7z" fill="url(#D)"/><path d="M196.3 380.8c2.7-.2 5.4-1.3 7.4-3.4l1.8-1.7c3-3 4-7.2 3.1-11-4.5 5-8.6 10.4-12.3 16.1z" fill="url(#E)"/></svg>