<svg id="Layer_1" enable-background="new 0 0 496 496" height="512" viewBox="0 0 496 496" width="512" xmlns="http://www.w3.org/2000/svg"><path d="m363.87 212.17v-183.01c0-16.08-13.08-29.16-29.16-29.16-16.1 0-29.16 13.008-29.16 29.16v131.31c4.93.78 9.67 3.05 13.46 6.84z"/><path d="m186.06 322.58c16.08 0 29.17-13.08 29.17-29.16v-81.97c0-16.154-13.014-29.77-29.17-29.77-16.214 0-29.16 13.137-29.16 29.16v82.58c0 16.08 13.09 29.16 29.16 29.16z"/><path d="m260.39 314.32c16.08 0 29.16-13.08 29.16-29.16v-26.37c-7.771-7.887-23.05-21.643-23.05-48.38 0-11.67 3.27-22.82 9.34-32.45-18.953-12.187-44.61 1.418-44.61 24.62v82.58c0 16.08 13.08 29.16 29.16 29.16z"/><path d="m305.55 275.03c0 11.204.789 19.946-5.32 31.37 6.97-2.66 14.23-4.75 21.72-6.19-2.304-12.173-9.06-17.732-16.4-25.18z"/><path d="m378.48 249.41-70.78-70.79c-3.32-3.31-8.7-3.33-12.01-.03-17.576 17.535-17.571 45.935-.15 63.48 6.823 6.921-3.85-3.904 28.21 28.64 9.56 9.71 14.83 22.56 14.83 36.19 0 4.01-2.97 7.4-6.94 7.93-57.25 7.63-100.41 57-100.41 114.85 0 4.42-3.59 8-8 8-4.42 0-8-3.58-8-8 0-39.21 17.43-74.99 45.29-99.36-13.94 0-26.211-6.193-34.49-15.9-7.58 14.35-22.64 24.16-39.97 24.16-24.9 0-45.16-20.26-45.16-45.16v-177.55c0-13.8-11.23-25.03-25.03-25.03s-25.03 11.23-25.03 25.03v251.87c0 70.72 57.54 128.26 128.26 128.26h57.8c70.72 0 128.26-57.54 128.26-128.26v-53.92c0-24.33-9.47-47.21-26.68-64.41z"/></svg>